<mxfile host="app.diagrams.net" modified="2023-08-14T11:31:31.608Z" agent="Mozilla/5.0 (X11; Linux x86_64) AppleWebKit/537.36 (KHTML, like Gecko) Chrome/114.0.0.0 Safari/537.36 Edg/114.0.1823.67" version="21.6.6" etag="3pn9WSYNZWMnlhGEWQSq" type="github">
  <diagram name="第 1 页" id="sspXBddoLxMYkBJy-dM3">
    <mxGraphModel>
      <root>
        <mxCell id="0" />
        <mxCell id="1" parent="0" />
      </root>
    </mxGraphModel>
  </diagram>
</mxfile>
